<svg width="18" height="16" viewBox="0 0 18 16" fill="none" xmlns="http://www.w3.org/2000/svg">
<path d="M17.9966 9.67173C17.9955 11.3048 17.3466 12.8707 16.1921 14.0259C15.0377 15.181 13.4722 15.8309 11.8391 15.833H0.753357C0.554445 15.833 0.363679 15.754 0.223027 15.6133C0.0823747 15.4727 0.00335693 15.2819 0.00335693 15.083C0.00335693 14.8841 0.0823747 14.6933 0.223027 14.5526C0.363679 14.412 0.554445 14.333 0.753357 14.333H11.8391C13.0676 14.322 14.242 13.8262 15.1067 12.9537C15.9715 12.0811 16.4567 10.9023 16.4567 9.67379C16.4567 8.44529 15.9715 7.2665 15.1067 6.39393C14.242 5.52136 13.0676 5.02562 11.8391 5.0146H2.84661L5.30098 7.03248C5.37755 7.09486 5.44104 7.17176 5.48781 7.25875C5.53458 7.34573 5.56371 7.4411 5.57353 7.53938C5.58334 7.63765 5.57365 7.7369 5.54501 7.83142C5.51637 7.92594 5.46934 8.01387 5.40662 8.09017C5.34391 8.16647 5.26674 8.22963 5.17955 8.27602C5.09236 8.32241 4.99686 8.35113 4.89855 8.36052C4.80023 8.36991 4.70103 8.35979 4.60663 8.33074C4.51223 8.30168 4.42451 8.25427 4.34848 8.19123L0.277107 4.8436C0.268107 4.8361 0.261357 4.8271 0.252732 4.81923C0.233209 4.80152 0.214681 4.78274 0.197232 4.76298L0.191232 4.75735C0.185982 4.75135 0.179232 4.74685 0.173982 4.74085V4.7386C0.166107 4.72923 0.160482 4.71835 0.153357 4.7086C0.138606 4.689 0.12496 4.6686 0.112482 4.64748C0.109482 4.6426 0.105357 4.6381 0.102732 4.63285C0.100107 4.6276 0.0933569 4.62048 0.0899819 4.61373C0.0866069 4.60698 0.0821069 4.59348 0.0776069 4.58373C0.0674819 4.56198 0.0588571 4.53985 0.0506071 4.51698L0.0479821 4.51023C0.0404821 4.48885 0.0337319 4.4671 0.0281069 4.44535C0.0224819 4.4236 0.0187321 4.40073 0.0153571 4.37785C0.0131071 4.36398 0.00860717 4.35085 0.00748217 4.33698C0.00635717 4.3231 0.00748217 4.31035 0.00748217 4.29723C0.00748217 4.2841 0.00410688 4.27585 0.00410688 4.2646C0.00410688 4.25335 0.00710717 4.24285 0.00748217 4.2316C0.00785717 4.22035 0.00748217 4.20535 0.00748217 4.19223C0.00748217 4.1791 0.0131071 4.16485 0.0153571 4.15098C0.0187321 4.1281 0.0228569 4.1056 0.0281069 4.08348C0.0333569 4.06135 0.0404821 4.03998 0.0479821 4.0186L0.0506071 4.01185C0.0588571 3.98898 0.0674819 3.96685 0.0776069 3.9451C0.0821069 3.93535 0.0847319 3.92485 0.0899819 3.9151C0.0952319 3.90535 0.0989821 3.90273 0.102732 3.89598C0.106482 3.88923 0.109482 3.88623 0.112482 3.88135C0.124717 3.86025 0.138112 3.83985 0.152607 3.82023C0.159732 3.81048 0.165357 3.7996 0.173232 3.79023V3.78835C0.180732 3.77898 0.190107 3.7726 0.197982 3.7636C0.215232 3.74485 0.232857 3.7261 0.251982 3.7096C0.260607 3.70173 0.267357 3.69273 0.276357 3.68523L0.280107 3.68185L4.34998 0.337604C4.42601 0.274558 4.51373 0.227149 4.60813 0.198097C4.70253 0.169046 4.80173 0.158924 4.90005 0.168314C4.99836 0.177704 5.09386 0.20642 5.18105 0.252814C5.26824 0.299208 5.34541 0.362366 5.40812 0.438662C5.47084 0.514959 5.51787 0.602891 5.54651 0.697411C5.57515 0.791931 5.58484 0.891178 5.57503 0.989454C5.56521 1.08773 5.53608 1.1831 5.48931 1.27009C5.44254 1.35708 5.37905 1.43397 5.30248 1.49635L2.84811 3.5146H11.8406C13.4728 3.51679 15.0375 4.16622 16.1915 5.32046C17.3456 6.47471 17.9947 8.03953 17.9966 9.67173Z" fill="white" fill-opacity="0.75"/>
</svg>
