<svg width="20" height="22" viewBox="0 0 20 22" fill="none" xmlns="http://www.w3.org/2000/svg">
<path d="M19.707 10.2455L11.707 0.862349C11.5672 0.698316 11.389 0.586603 11.195 0.541338C11.0011 0.496073 10.8 0.519289 10.6173 0.608051C10.4346 0.696813 10.2784 0.847133 10.1685 1.04C10.0587 1.23287 10 1.45962 10 1.69159V5.84941C7.2683 6.14598 4.72926 7.62746 2.87973 10.004C1.0302 12.3804 0.00330851 15.4809 2.93404e-09 18.6986V20.4579C-1.59013e-05 20.7015 0.0646263 20.9391 0.184953 21.1376C0.305279 21.3361 0.475319 21.4858 0.671468 21.5658C0.867616 21.6458 1.08014 21.6523 1.27954 21.5842C1.47894 21.5161 1.65531 21.3769 1.78418 21.1858C2.76383 19.8193 3.96583 18.6955 5.31997 17.8801C6.67411 17.0646 8.15323 16.5738 9.67091 16.4364C9.72071 16.429 9.84571 16.4175 10 16.4061V20.4579C10 20.6899 10.0587 20.9167 10.1685 21.1095C10.2784 21.3024 10.4346 21.4527 10.6173 21.5415C10.8 21.6302 11.0011 21.6535 11.195 21.6082C11.389 21.5629 11.5672 21.4512 11.707 21.2872L19.707 11.904C19.7999 11.7951 19.8736 11.6658 19.9238 11.5236C19.9741 11.3813 20 11.2288 20 11.0748C20 10.9207 19.9741 10.7682 19.9238 10.626C19.8736 10.4837 19.7999 10.3544 19.707 10.2455ZM12 17.6265V15.1799C12 15.0259 11.9742 14.8733 11.924 14.731C11.8737 14.5887 11.8001 14.4594 11.7072 14.3504C11.6143 14.2415 11.5041 14.1551 11.3827 14.0962C11.2614 14.0373 11.1313 14.007 11 14.007C10.7451 14.007 9.70411 14.0649 9.43849 14.1067C6.74308 14.3979 4.17736 15.599 2.05176 17.5646C2.29289 14.9776 3.33918 12.5858 4.99027 10.8473C6.64135 9.10878 8.78119 8.14571 11 8.14252C11.1313 8.14256 11.2614 8.11225 11.3827 8.05332C11.5041 7.99439 11.6143 7.908 11.7072 7.79908C11.8001 7.69015 11.8737 7.56084 11.924 7.41852C11.9742 7.2762 12 7.12366 12 6.96962V4.52303L17.5859 11.0748L12 17.6265Z" fill="white" fill-opacity="0.75"/>
</svg>
