<svg width="40" height="40" viewBox="0 0 40 40" fill="none" xmlns="http://www.w3.org/2000/svg">
<path fill-rule="evenodd" clip-rule="evenodd" d="M31.6667 9.99967H30V8.33301C30 5.57158 27.7615 3.33301 25 3.33301H8.33337C5.57195 3.33301 3.33337 5.57158 3.33337 8.33301V19.9997C3.33337 22.7611 5.57195 24.9997 8.33337 24.9997V28.333C8.33528 28.9606 8.68957 29.5339 9.25004 29.8163C9.48004 29.9411 9.73841 30.0043 10 29.9997C10.3607 29.9997 10.7115 29.8827 11 29.6663C11.9443 30.9254 13.4263 31.6663 15 31.6663H22.7834L29 36.333C29.2885 36.5494 29.6394 36.6663 30 36.6663C30.2617 36.671 30.52 36.6078 30.75 36.483C31.3105 36.2006 31.6648 35.6273 31.6667 34.9997V31.6663C34.4281 31.6663 36.6667 29.4278 36.6667 26.6663V14.9997C36.6667 12.2382 34.4281 9.99967 31.6667 9.99967ZM11.6667 24.9997V23.333C11.6667 22.4125 10.9205 21.6663 10 21.6663H8.33337C7.4129 21.6663 6.66671 20.9201 6.66671 19.9997V8.33301C6.66671 7.41253 7.4129 6.66634 8.33337 6.66634H25C25.9205 6.66634 26.6667 7.41253 26.6667 8.33301V19.9997C26.6667 20.9201 25.9205 21.6663 25 21.6663H16.6667C16.3061 21.6663 15.9552 21.7833 15.6667 21.9997L11.6667 24.9997ZM31.6667 28.333C32.5872 28.333 33.3334 27.5868 33.3334 26.6663V14.9997C33.3334 14.0792 32.5872 13.333 31.6667 13.333H30V19.9997C30 22.7611 27.7615 24.9997 25 24.9997H17.2167L13.7 27.6497C14.0042 28.0664 14.4843 28.3187 15 28.333H23.3334C23.694 28.333 24.0449 28.45 24.3334 28.6663L28.3334 31.6663V29.9997C28.3334 29.0792 29.0796 28.333 30 28.333H31.6667Z" fill="#939393"/>
</svg>
