<svg width="34" height="34" viewBox="0 0 34 34" fill="none" xmlns="http://www.w3.org/2000/svg">
<path fill-rule="evenodd" clip-rule="evenodd" d="M31.1667 7.08301V26.9163C31.1667 29.2636 29.2639 31.1663 26.9167 31.1663H7.08337C4.73616 31.1663 2.83337 29.2636 2.83337 26.9163V7.08301C2.83337 4.7358 4.73616 2.83301 7.08337 2.83301H26.9167C29.2639 2.83301 31.1667 4.7358 31.1667 7.08301ZM13.8125 9.61884C14.9997 8.64885 16.5645 8.2733 18.0625 8.59884L18.0767 8.55634C20.2673 9.02592 21.8734 10.9025 21.9991 13.1393C22.1249 15.3762 20.7392 17.4209 18.615 18.133C18.08 18.4077 17.7337 18.9487 17.7084 19.5497V19.833C17.7084 20.6154 17.0741 21.2497 16.2917 21.2497C15.5093 21.2497 14.875 20.6154 14.875 19.833V19.5072C14.9148 17.7051 16.0315 16.1026 17.7084 15.4413C18.6314 15.1475 19.2388 14.2666 19.1855 13.2994C19.1321 12.3322 18.4314 11.5236 17.4817 11.333C16.8084 11.1891 16.1066 11.3672 15.5834 11.8147C15.0942 12.2195 14.8132 12.823 14.8184 13.458C14.8184 14.2404 14.1841 14.8747 13.4017 14.8747C12.6193 14.8747 11.985 14.2404 11.985 13.458C11.9806 11.9674 12.6528 10.5553 13.8125 9.61884ZM17.765 24.1963C17.7615 24.0068 17.7231 23.8195 17.6517 23.6438C17.5872 23.461 17.4804 23.296 17.34 23.1622C16.7875 22.6129 15.8951 22.6129 15.3425 23.1622C15.21 23.2915 15.1041 23.4455 15.0309 23.6155C14.9637 23.7919 14.9301 23.9793 14.9317 24.168C14.9369 24.5431 15.0837 24.9024 15.3425 25.1738C15.6099 25.439 15.9718 25.5869 16.3484 25.5847H16.6175L16.8867 25.4997C16.9713 25.4658 17.052 25.4231 17.1275 25.3722L17.34 25.2022C17.6104 24.9372 17.7635 24.5749 17.765 24.1963ZM26.9167 5.66634C27.6991 5.66634 28.3334 6.3006 28.3334 7.08301V26.9163C28.3334 27.6987 27.6991 28.333 26.9167 28.333H7.08337C6.30097 28.333 5.66671 27.6987 5.66671 26.9163V7.08301C5.66671 6.3006 6.30097 5.66634 7.08337 5.66634H26.9167Z" fill="#939393"/>
</svg>
