<svg width="34" height="34" viewBox="0 0 34 34" fill="none" xmlns="http://www.w3.org/2000/svg">
<path fill-rule="evenodd" clip-rule="evenodd" d="M31.1667 26.9163V7.08301C31.1667 4.7358 29.2639 2.83301 26.9167 2.83301H7.08337C4.73616 2.83301 2.83337 4.7358 2.83337 7.08301V26.9163C2.83337 29.2636 4.73616 31.1663 7.08337 31.1663H26.9167C29.2639 31.1663 31.1667 29.2636 31.1667 26.9163ZM22.6667 14.1663C21.1019 14.1663 19.8334 15.4349 19.8334 16.9997C19.8334 18.5645 21.1019 19.833 22.6667 19.833C24.2315 19.833 25.5 18.5645 25.5 16.9997C25.5 15.4349 24.2315 14.1663 22.6667 14.1663ZM28.3334 12.7497H18.4167C17.6343 12.7497 17 13.3839 17 14.1663V19.833C17 20.6154 17.6343 21.2497 18.4167 21.2497H28.3334V12.7497ZM26.9167 5.66634C27.6991 5.66634 28.3334 6.3006 28.3334 7.08301V9.91634H18.4167C16.0695 9.91634 14.1667 11.8191 14.1667 14.1663V19.833C14.1667 22.1802 16.0695 24.083 18.4167 24.083H28.3334V26.9163C28.3334 27.6987 27.6991 28.333 26.9167 28.333H7.08337C6.30097 28.333 5.66671 27.6987 5.66671 26.9163V7.08301C5.66671 6.3006 6.30097 5.66634 7.08337 5.66634H26.9167Z" fill="#939393"/>
</svg>
